<svg xmlns="http://www.w3.org/2000/svg" height="48" viewBox="0 -960 960 960" width="48"><path d="m438-378-76-77q-5.636-4-13.818-4Q340-459 336-454.947q-6 6.586-6 13.766Q330-434 336-429l79 78q8.727 10 22.182 10 13.454 0 24.818-10l163-164q4-3.067 4.5-10.967t-4.553-13.533q-6.186-5.5-13-5.5T599-539L438-378Zm42.872 259q-67.406 0-126.139-25Q296-169 251.5-212.5 207-256 182-314.956T157-441.03q0-67.118 25-126.044T251.5-670q44.5-44 103.094-69.5 58.595-25.5 125.5-25.5Q547-765 605.5-739.5T708-670q44 44 69.5 102.797t25.5 126Q803-374 777.5-315T708-212.5Q664-169 605.5-144q-58.499 25-124.628 25ZM481-441ZM105-678.5q-6-5.5-6-12.5t6-13l114-113q4-5 11.133-5 7.134 0 13.867 6 5 5 4.5 12.5t-4.06 11.324L130-679q-6.289 6-13.144 6.5-6.856.5-11.856-6Zm752-.5q-6.533 7-13.267 7Q837-672 832-679L718-792q-5-4.289-5.5-11.644Q712-811 718.232-816q5.232-6 11.5-6T742-817l114 113q4 5.733 5 12.867Q862-684 857-679ZM480.526-154Q599-154 683.5-237.968 768-321.936 768-440.543q0-119.025-84.647-204.241Q598.707-730 480.278-730q-118.846 0-203.562 84.464Q192-561.073 192-441.537 192-322 276.482-238t204.044 84Z"/></svg>