<svg xmlns="http://www.w3.org/2000/svg" height="48" viewBox="0 -960 960 960" width="48"><path d="M480-166q-60.719 0-113.86-21Q313-208 272-247l-84 84q-5.364 5-12.682 5.5Q168-157 163-163q-6-5-6-11.8 0-6.8 6-13.2l84-84q-39-41-60-94t-21-114q0-131.5 91.449-223.25Q348.897-795 480-795h248q27 0 47 20t20 47v248q0 131.103-91.75 222.551Q611.5-166 480-166Zm-44-149 174-157q8-8 3.864-18.037Q609.727-500.074 600-502l-137-13 83-113q2-3.688 2-8.844 0-5.156-3-9.156-3.782-4-9.498-4-5.716 0-9.498 4L351-490q-9 8.75-5 18.903 4 10.153 15 12.097l137 13-82 112.955q-4 3.772-3 9.022t4 9.023q3 4 9 4t10-4Z"/></svg>