<svg xmlns="http://www.w3.org/2000/svg" height="48" viewBox="0 -960 960 960" width="48"><path d="m437-302 166-167q4-3 10.283-3.5 6.282-.5 12.717 4 6 5.935 6 12.413 0 6.478-6 12.087L460-279q-10.091 11-23.545 11Q423-268 414-279l-81-79q-5-4.043-4.5-11.022Q329-376 334-382q5-4 11.5-4.5T358-382l79 80ZM223-117q-27.5 0-47.25-19.75T156-184v-520q0-27.5 19.75-47.25T223-771h72v-64q0-7.625 5.796-13.812 5.797-6.188 13.8-6.188 8.429 0 14.417 6.188Q335-842.625 335-835v64h294v-65.719q0-7.906 5.498-13.093 5.499-5.188 12.8-5.188 7.727 0 13.215 5.412Q666-844.175 666-837v66h71q27.5 0 47.25 19.75T804-704v520q0 27.5-19.75 47.25T737-117H223Zm0-35h514q12 0 22-10t10-22v-357H191v357q0 12 10 22t22 10Z"/></svg>