<svg xmlns="http://www.w3.org/2000/svg" height="48" viewBox="0 -960 960 960" width="48"><path d="M485.066-156Q363-156 273.5-233T165-427q-2-9 2-16.5t12.606-7.5q7.394 0 12.894 4.5T200-434q18 105 97 174t187.24 69q120.064 0 204.412-85.127Q773-361.254 773-482q0-120-84-203.5T485-769q-62.714 0-119.357 26T268-671h81q7.4 0 12.7 5.035 5.3 5.035 5.3 12.316 0 7.281-5.3 12.465T349-636H241q-13.775 0-23.387-9.625Q208-655.25 208-670v-109q0-5.975 5.018-11.488 5.017-5.512 12-5.512 6.982 0 12.482 5.512Q243-784.975 243-779v84q45-52 108.507-80.5Q415.013-804 485-804q67.165 0 125.583 25.5Q669-753 712.5-709T782-605.854q26 59.146 26 125Q808-414 782-354.5T712.5-251q-43.5 44-101.896 69.5Q552.207-156 485.066-156ZM493-488l130 128q5 6 5.5 13t-5.5 13q-6.289 5-12.644 5Q604-329 598-334L468-462q-5-4-7.5-10.565Q458-479.13 458-486v-186q0-6.975 5.018-11.988 5.017-5.012 12-5.012 6.982 0 12.482 5.012Q493-678.975 493-672v184Z"/></svg>