<svg xmlns="http://www.w3.org/2000/svg" height="48" viewBox="0 -960 960 960" width="48"><path d="m438-416-80-80q-4.091-5-12.045-5Q338-501 333-496.211q-6 5.19-6 12.534T333-471l82 80q8.818 11 22.227 11T461-391l166-165q4-3.8 4.5-11.4.5-7.6-3.789-13.6-6.29-5-13.067-5T603-581L438-416Zm42 293q-6.32 0-12.38-.75-6.06-.75-10.62-3.25-121-45-190.5-155.242Q197-392.483 197-518.106V-688q0-21.472 12.115-39.25Q221.231-745.027 241-753l216-80q11-4 23-4t24 4l216 80q18.788 7.513 30.894 25.432Q763-709.649 763-688v169.894q0 125.623-69.5 235.864Q624-172 504-127q-5.56 2-11.62 3T480-123Zm0-31q107-35 177.5-137T728-518.21V-689.1q0-10-5.5-18t-15.5-12L491-800q-5-2-11-2t-11 2l-216 80.9q-10 4-15.5 12t-5.5 18v170.89Q232-393 302.5-291 373-189 480-154Zm0-324Z"/></svg>