<svg xmlns="http://www.w3.org/2000/svg" height="48" viewBox="0 -960 960 960" width="48"><path d="M499-488v-181q0-6.975-5.035-11.988Q488.93-686 481.649-686q-7.281 0-12.465 5.012Q464-675.975 464-669v183q0 7.87 2.5 14.078 2.5 6.208 7.5 9.922l145 146q4 5 11.5 6t14.5-6q5-5 5.5-12.5T645-341L499-488Zm-18.55 372q-75.09 0-141.488-28.911-66.399-28.912-115.734-78.188-49.336-49.277-78.282-115.595Q116-405.012 116-480.102q0-75.345 28.97-141.193 28.971-65.848 78.348-115.351 49.378-49.502 115.594-78.428Q405.128-844 480.102-844q75.336 0 141.175 28.891 65.84 28.892 115.355 78.348 49.516 49.457 78.442 115.243Q844-555.732 844-480.366q0 75.366-28.891 141.424-28.892 66.059-78.335 115.496-49.443 49.436-115.211 78.441Q555.795-116 480.45-116Z"/></svg>