<svg xmlns="http://www.w3.org/2000/svg" height="48" viewBox="0 -960 960 960" width="48"><path d="M480-512q67 0 108.5-51.881Q630-615.763 630-686.29V-809H330v122.71q0 70.527 41.5 122.409Q413-512 480-512zM222-116q-7.675 0-12.837-5.412-5.163-5.413-5.163-12.5Q204-141 209.163-146q5.162-5 12.837-5h73v-123q0-74 41.5-131.5T446-480q-68-18-109.5-75.5T295-686v-123h-73q-7.675 0-12.837-5.412-5.163-5.413-5.163-12.5Q204-834 209.163-839q5.162-5 12.837-5h517q6.7 0 11.85 5.228 5.15 5.228 5.15 12.316 0 7.088-5.15 12.272T739-809h-74v123q0 73-41.5 130.5T514-480q68 17 109.5 74.5T665-274v123h74q6.7 0 11.85 5.228 5.15 5.228 5.15 12.316 0 7.088-5.15 12.272T739-116H222z"/></svg>