<svg xmlns="http://www.w3.org/2000/svg" height="48" viewBox="0 -960 960 960" width="48"><path d="M807-369v-220L513-429q-14.862 8-32.931 7.5Q462-422 447-430L173-581q-7-4-12.5-11.809-5.5-7.808-5.5-16.241 0-8.379 5.6-16.093T173-638l273.962-150.474q8.019-3.763 16.705-6.145Q472.353-797 480.194-797q7.841 0 16.514 2.5Q505.382-792 513-788l312 169q6.333 3.857 11.667 11.886Q842-599.086 842-590v221q0 7.7-5.211 12.85-5.21 5.15-12.315 5.15-7.106 0-12.29-5.15Q807-361.3 807-369ZM447-234l-179-98q-16-10-25-25t-9-34v-122l213 116q14.31 9 32.552 9 18.241 0 33.448-9l213-116v122.184q0 19.316-9 34.066Q708-342 692-332l-179 98q-7.737 5-16.535 7-8.799 2-16.271 2-7.472 0-16.271-2-8.798-2-16.923-7Z"/></svg>