<svg xmlns="http://www.w3.org/2000/svg" height="48" viewBox="0 -960 960 960" width="48"><path d="M440-86q0-16 16.237-25.5Q472.475-121 503-121v-238q4 1 8.468 1.5 4.467.5 8.532.5 27.455 0 49.727-16.485Q592-389.97 600-415q0-1-.5-2t-.5-3l124 30q6 2 11.5 5.5T744-374l91 165q8 14.138 5.633 28.874Q838.267-165.39 827-155q-14 14-32.059 13.5Q776.882-142 763-156L560-359q-5 3-10.5 4.5T538-351v230q30 0 46.5 9.625T601-86H440zm-131-83H183q-6.7 0-11.85-5.211-5.15-5.21-5.15-12 0-6.789 5.15-12.289T183-204h126q7.125 0 12.562 5.503Q327-192.994 327-185.772q0 6.797-5.438 11.784Q316.125-169 309-169zm6-165l-180-51q-14.803-5.365-23.402-17.333Q103-414.301 103-429.016 103-448 115.962-461.5 128.923-475 148-475h298q-4 8-6.5 16.659Q437-449.682 437-440q0 10.984 3.5 20.992Q444-409 450-402l-107 65q-5 5-12 5t-16-2zm205.059-60q-19.559 0-32.809-13.294-13.25-13.294-13.25-33t13.294-33.206q13.294-13.5 33-13.5t33.206 13.483q13.5 13.483 13.5 33.458 0 19.559-13.483 32.809Q540.034-394 520.059-394zM568-505q-9-9-21.883-14-12.882-5-26.28-5-4.912 0-9.662 1-4.75 1-10.175 3v-136q0-6 2.5-13t8.5-12l137-128q10.94-10.857 26.47-12.929Q690-824 703.143-816.101q15.714 10.624 19.786 28.862Q727-769 719-753L568-505zm-339-92H103q-6.7 0-11.85-5.211-5.15-5.21-5.15-12Q86-621 91.15-626.5T103-632h126q7.125 0 12.562 5.503Q247-620.994 247-613.772q0 6.797-5.438 11.785Q236.125-597 229-597zm160-160H223q-6.7 0-11.85-5.211-5.15-5.21-5.15-12 0-6.789 5.15-12.289T223-792h166q7.125 0 12.562 5.503Q407-780.994 407-773.772q0 6.797-5.438 11.785Q396.125-757 389-757z"/></svg>